<svg version="1.1" id="Layer_1" xmlns="http://www.w3.org/2000/svg" xmlns:xlink="http://www.w3.org/1999/xlink" x="0px" y="0px" viewBox="0 0 500 500" style="width: 188px;" xml:space="preserve" data-imageid="banker-72" imageName="Banker" class="illustrations_image">
<style type="text/css">
	.st0_banker-72{fill:#FFFFFF;}
	.st1_banker-72{fill:#D1D3D4;}
	.st2_banker-72{fill:#231F20;}
	.st3_banker-72{fill:#68E1FD;}
</style>
<g id="Money_banker-72">
	<path class="st0_banker-72" d="M50.3,265.5c0,0,3.7,21.3-9.6,36.7l23.9,12c0,0,10.1-21.7,6.2-44.1L50.3,265.5z"/>
	<path class="st1_banker-72" d="M64.6,314.9c-0.1,0-0.2,0-0.3-0.1l-23.9-12c-0.2-0.1-0.3-0.3-0.4-0.5c0-0.2,0-0.4,0.2-0.6&#10;&#9;&#9;c12.9-15,9.5-36,9.4-36.2c-0.1-0.4,0.2-0.7,0.6-0.8c0.1,0,0.2,0,0.3,0l20.4,4.6c0.3,0.1,0.5,0.3,0.5,0.6&#10;&#9;&#9;c3.9,22.4-6.1,44.3-6.2,44.5c-0.1,0.2-0.2,0.3-0.4,0.4C64.7,314.9,64.6,314.9,64.6,314.9z M41.8,302l22.4,11.3&#10;&#9;&#9;c1.6-3.8,9.1-22.9,5.9-42.5l-19-4.3C51.6,270.8,52.9,288.5,41.8,302z"/>
	<path class="st0_banker-72" d="M446.5,268.3l-20.5,12c0,0,12.9,35,40,38.5c0,0,3.6-18,14.3-21.5C480.3,297.4,453.5,293.9,446.5,268.3z"/>
	<path class="st1_banker-72" d="M466,319.6L466,319.6c-27.3-3.5-40.5-38.6-40.7-39c-0.1-0.3,0-0.7,0.3-0.9l20.5-12c0.2-0.1,0.4-0.1,0.6,0&#10;&#9;&#9;c0.2,0.1,0.4,0.3,0.4,0.5c6.8,24.8,33,28.5,33.2,28.5c0.3,0,0.6,0.3,0.6,0.6c0,0.3-0.2,0.6-0.5,0.7c-10.2,3.3-13.8,20.8-13.9,21&#10;&#9;&#9;C466.6,319.4,466.3,319.6,466,319.6z M426.9,280.6c1.8,4.4,14.5,33.9,38.6,37.5c0.7-3.1,4.1-16,12.5-20.5&#10;&#9;&#9;c-6.6-1.5-25.7-7.7-31.9-28.2L426.9,280.6z"/>
	<path class="st0_banker-72" d="M382.1,290.9c0,0-11.2,25.5-30.4,25.5l15.2,21c0,0,30.2-10.1,32.2-34.1L382.1,290.9z"/>
	<path class="st1_banker-72" d="M366.9,338.2c-0.2,0-0.4-0.1-0.6-0.3l-15.2-21c-0.2-0.2-0.2-0.5-0.1-0.7c0.1-0.2,0.4-0.4,0.6-0.4&#10;&#9;&#9;c18.5,0,29.7-24.9,29.8-25.1c0.1-0.2,0.3-0.3,0.5-0.4c0.2-0.1,0.4,0,0.6,0.1l17,12.5c0.2,0.1,0.3,0.4,0.3,0.6&#10;&#9;&#9;c-2,24.2-32.4,34.6-32.7,34.7C367.1,338.2,367,338.2,366.9,338.2z M353.1,317.1l14.1,19.5c3.8-1.4,29.2-11.6,31.2-32.9l-16-11.7&#10;&#9;&#9;c-2.1,4.3-4.7,8.4-7.8,12.1C368.1,312.2,360.6,316.6,353.1,317.1z"/>
	<path class="st0_banker-72" d="M121.4,282.1l-13.9,15.1c0,0,16.6,29,38.6,26.1c0,0,3.3-14.1,9.3-20.5C155.5,302.8,126.8,299.1,121.4,282.1z"/>
	<path class="st1_banker-72" d="M143,324.2c-20.6,0-35.5-25.6-36.1-26.7c-0.1-0.3-0.1-0.6,0.1-0.8l13.9-15.1c0.2-0.2,0.4-0.3,0.7-0.2&#10;&#9;&#9;c0.2,0.1,0.4,0.2,0.5,0.5c5.2,16.4,33.2,20.2,33.5,20.2c0.3,0,0.5,0.2,0.6,0.5c0.1,0.2,0,0.5-0.1,0.7c-5.8,6.1-9.1,20-9.2,20.2&#10;&#9;&#9;c-0.1,0.3-0.3,0.5-0.6,0.5C145.1,324.1,144.1,324.2,143,324.2z M108.4,297.2c2.2,3.6,17.6,27.5,37.2,25.4&#10;&#9;&#9;c0.6-2.4,3.6-13.3,8.6-19.4c-4.7-0.8-9.4-2.1-13.9-3.8c-9.9-3.9-16.5-9.4-19-16L108.4,297.2z"/>
	<path class="st0_banker-72" d="M148,186.1c0,0-5.9,10.4,12,17.8l10.8-16.6C170.8,187.3,152.3,177.3,148,186.1z"/>
	<path class="st1_banker-72" d="M160,204.6c-0.1,0-0.2,0-0.3,0c-7-2.9-11.3-6.6-12.8-11c-0.9-2.6-0.8-5.4,0.4-7.9c0.8-1.7,2.3-3,4.1-3.5&#10;&#9;&#9;c7.1-2.3,19.1,4.2,19.7,4.5c0.2,0.1,0.3,0.2,0.4,0.4c0,0.2,0,0.4-0.1,0.6l-10.8,16.6C160.5,204.5,160.2,204.6,160,204.6z&#10;&#9;&#9; M155,183.2c-1,0-2,0.1-3,0.4c-1.5,0.4-2.7,1.4-3.3,2.8l0,0c-1,2.1-1.1,4.5-0.3,6.8c1.4,3.9,5.2,7.2,11.5,9.9l10.1-15.4&#10;&#9;&#9;C167.6,186.5,160.6,183.2,155,183.2z M148,186.1L148,186.1z"/>
	<path class="st0_banker-72" d="M182.4,186.1c0,0-1.3-20.9-22.2-17.5L148,186.1c0,0,10.9-11.7,25,13.8L182.4,186.1z"/>
	<path class="st1_banker-72" d="M173,200.6L173,200.6c-0.2,0-0.5-0.1-0.6-0.4c-5.4-9.8-11.2-15.4-16.6-16.1c-2.7-0.3-5.3,0.6-7.3,2.4&#10;&#9;&#9;c-0.2,0.3-0.7,0.3-1,0.1s-0.3-0.7-0.1-1l0,0l12.2-17.5c0.1-0.2,0.3-0.3,0.5-0.3c6.4-1.1,11.7,0,15.7,3.2c6.7,5.3,7.3,14.5,7.3,14.9&#10;&#9;&#9;c0,0.2,0,0.3-0.1,0.4l-9.4,13.8C173.5,200.5,173.2,200.6,173,200.6z M154.6,182.7c0.4,0,0.9,0,1.3,0.1c5.8,0.7,11.6,6,17.1,15.8&#10;&#9;&#9;l8.6-12.6c-0.1-1.4-1.2-9.2-6.8-13.7c-3.6-2.9-8.4-3.9-14.3-3l-10,14.2C151.9,182.9,153.3,182.7,154.6,182.7L154.6,182.7z"/>
	<path class="st0_banker-72" d="M411.7,354.6c0,0,1.2-13.8,23-9.2l-0.4,22.8C434.3,368.2,410.2,365.8,411.7,354.6z"/>
	<path class="st1_banker-72" d="M434.3,368.9L434.3,368.9c-0.7-0.1-16.4-1.8-21.6-8.5c-1.4-1.7-2-3.8-1.7-5.9c0.5-3.1,2.1-5.8,4.7-7.7&#10;&#9;&#9;c4.3-3.2,10.7-3.9,19.2-2.1c0.3,0.1,0.6,0.4,0.6,0.7l-0.5,22.8c0,0.2-0.1,0.4-0.2,0.5C434.6,368.9,434.5,368.9,434.3,368.9z&#10;&#9;&#9; M426.6,345.2c-4.2,0-7.5,0.9-10,2.8c-2.2,1.6-3.7,4-4.1,6.7l0,0c-0.3,1.8,0.2,3.5,1.4,4.9c4.3,5.5,16.7,7.5,19.9,7.9l0.4-21.5&#10;&#9;&#9;C431.6,345.4,429.1,345.2,426.6,345.2z M411.7,354.6L411.7,354.6z"/>
	<path class="st0_banker-72" d="M444.5,377c0,0-14.8,19-32.5,2.2l-0.3-24.6c0,0,2.8,18.3,32.8,3.1L444.5,377z"/>
	<path class="st1_banker-72" d="M427.1,386.8c-5.4,0-10.6-2.4-15.6-7.1c-0.1-0.1-0.2-0.3-0.2-0.5l-0.3-24.6c0-0.4,0.3-0.7,0.6-0.7&#10;&#9;&#9;c0.4,0,0.7,0.2,0.8,0.6c0.7,3.1,2.7,5.7,5.4,7.1c5.6,2.9,14.8,1.4,26.4-4.5c0.2-0.1,0.5-0.1,0.7,0c0.2,0.1,0.3,0.4,0.3,0.6v19.2&#10;&#9;&#9;c0,0.2,0,0.3-0.1,0.4c-0.3,0.4-6.9,8.7-16.6,9.4C428,386.8,427.6,386.8,427.1,386.8z M412.7,378.8c5,4.7,10.3,6.9,15.6,6.5&#10;&#9;&#9;c8.4-0.6,14.5-7.5,15.5-8.7v-17.9c-11.7,5.7-20.7,7.1-26.7,4c-2-1-3.6-2.5-4.7-4.4L412.7,378.8z M444.5,376.9L444.5,376.9z"/>
	<path class="st0_banker-72" d="M381.8,186.1c0,0-15.7-2.3-21.8-8.5s-11.1-9.8-21.9-11l-2.2,22.4c5.8,1.6,11.4,3.9,16.6,6.8&#10;&#9;&#9;c8.3,4.7,12.1,8.4,21.6,8.9L381.8,186.1z"/>
	<path class="st1_banker-72" d="M374.1,205.5L374.1,205.5c-7.7-0.4-11.8-2.9-17.3-6.3c-1.4-0.9-2.9-1.8-4.6-2.8c-5.2-2.9-10.7-5.2-16.4-6.8&#10;&#9;&#9;c-0.3-0.1-0.6-0.4-0.5-0.8l2.2-22.4c0-0.4,0.4-0.7,0.8-0.6c0,0,0,0,0,0c11,1.2,16.1,4.7,22.3,11.2c5.8,6,21.2,8.3,21.4,8.3&#10;&#9;&#9;c0.2,0,0.4,0.2,0.5,0.4c0.1,0.2,0.1,0.4,0,0.6l-7.7,18.6C374.7,205.3,374.4,205.5,374.1,205.5z M336.6,188.5&#10;&#9;&#9;c5.6,1.6,11.1,3.9,16.2,6.8c1.7,1,3.2,1.9,4.7,2.8c5.3,3.2,9.1,5.6,16.2,6l7.1-17.4c-3.5-0.6-15.9-3-21.3-8.6&#10;&#9;&#9;c-5.9-6.1-10.7-9.4-20.8-10.7L336.6,188.5z"/>
	<path class="st0_banker-72" d="M121,156.9c0,0-4.8-8.5-17.9-9.5s-19.6-8.4-19.6-8.4l11.2-13.1c0,0,5.8,4.5,15.8,3.5s20,4.9,21,6.4&#10;&#9;&#9;S121,156.9,121,156.9z"/>
	<path class="st1_banker-72" d="M121,157.6c-0.3,0-0.5-0.1-0.6-0.4c0-0.1-4.8-8.2-17.4-9.2c-13.3-1.1-19.8-8.4-20.1-8.7&#10;&#9;&#9;c-0.2-0.3-0.2-0.7,0-0.9l11.2-13.1c0.2-0.3,0.7-0.4,1-0.1c0,0,0,0,0,0c0.1,0,5.7,4.3,15.3,3.4c10.3-0.9,20.5,5,21.7,6.8&#10;&#9;&#9;c1.1,1.6-5.1,12.8-10.4,21.9C121.5,157.4,121.3,157.6,121,157.6z M84.4,138.9c1.6,1.6,7.9,6.9,18.7,7.8s16.1,6.6,17.8,8.9&#10;&#9;&#9;c5.1-8.7,10-18.2,9.9-19.5c-0.8-1.1-10.3-6.9-20.3-6c-8.5,0.8-14-2.2-15.7-3.3L84.4,138.9z"/>
	<path class="st0_banker-72" d="M111,355.5c0,0,7.4,11.8-8.4,19.7l-12.1-26.5C90.5,348.7,106.5,347.6,111,355.5z"/>
	<path class="st1_banker-72" d="M102.6,375.9c-0.1,0-0.2,0-0.2,0c-0.2-0.1-0.3-0.2-0.4-0.4L89.9,349c-0.2-0.3,0-0.8,0.3-0.9&#10;&#9;&#9;c0.1,0,0.2-0.1,0.3-0.1c0.7,0,16.5-1,21.2,7.2c1.8,3.1,2.3,6.8,1.4,10.2c-1.2,4.2-4.6,7.7-10,10.5&#10;&#9;&#9;C102.9,375.9,102.7,375.9,102.6,375.9z M91.6,349.3l11.3,24.9c4.7-2.5,7.7-5.6,8.7-9.3c0.8-3.1,0.4-6.3-1.2-9.1l0,0&#10;&#9;&#9;C106.8,349.6,95.1,349.3,91.6,349.3L91.6,349.3z"/>
	<path class="st0_banker-72" d="M111,355.5c0,0-7.1-1.6-14.2,7.6S76,366.3,76,366.3l-2-21.1c0,0,11.6,4.2,15.5-1.3s10.5-4.6,10.5-4.6&#10;&#9;&#9;L111,355.5z"/>
	<path class="st1_banker-72" d="M85.6,368.9c-3.4-0.1-6.7-0.7-9.8-2c-0.2-0.1-0.4-0.3-0.4-0.6l-2-21.2c0-0.2,0.1-0.5,0.3-0.6&#10;&#9;&#9;c0.2-0.2,0.4-0.2,0.7-0.1c0.1,0,11.1,4,14.7-1.1c2.6-3.5,6.8-5.4,11.2-4.9c0.2,0,0.4,0.1,0.5,0.3l10.9,16.3c0.2,0.3,0.1,0.8-0.2,1&#10;&#9;&#9;c-0.2,0.1-0.3,0.1-0.5,0.1c-0.3-0.1-6.8-1.3-13.5,7.4C94.2,367.7,89.6,368.9,85.6,368.9z M76.7,365.8c2.2,0.9,13.5,4.7,19.5-3.1&#10;&#9;&#9;c5.4-7,10.8-8,13.4-8l-9.9-14.8c-3.7-0.3-7.3,1.3-9.5,4.3c-3.5,4.9-12.2,2.8-15.3,1.9L76.7,365.8z"/>
</g>
<g id="Character_banker-72">
	<path class="st2_banker-72" d="M319.2,413.5l-11-73l-114.4-10c-0.9,1.1-5.7,37.3-11.4,83.1L319.2,413.5z"/>
	<path class="st2_banker-72" d="M319.2,414.2H182.4c-0.2,0-0.4-0.1-0.5-0.2c-0.1-0.1-0.2-0.4-0.2-0.5c10.2-81.9,11.1-82.9,11.6-83.4&#10;&#9;&#9;c0.1-0.2,0.4-0.3,0.6-0.2l114.4,10c0.3,0,0.6,0.3,0.6,0.6l11,73.1c0.1,0.4-0.2,0.7-0.6,0.8C319.3,414.2,319.2,414.2,319.2,414.2&#10;&#9;&#9;L319.2,414.2z M183.2,412.8h135.2l-10.8-71.7l-113.3-9.9C193.5,333.7,191,350.6,183.2,412.8L183.2,412.8z"/>
	<polygon class="st0_banker-72" points="218.9,217.9 218.9,357.2 288.9,357.2 282.6,215.1 249.7,210.3 &#9;"/>
	<path class="st2_banker-72" d="M288.9,357.9h-70.1c-0.4,0-0.7-0.3-0.7-0.7l0,0V217.9c0-0.3,0.2-0.6,0.5-0.7l30.8-7.6c0.1,0,0.2,0,0.3,0&#10;&#9;&#9;l33,4.9c0.3,0.1,0.6,0.3,0.6,0.7l6.3,142c0,0.2-0.1,0.4-0.2,0.5C289.3,357.8,289.1,357.9,288.9,357.9z M219.6,356.5h68.6L282,215.8&#10;&#9;&#9;l-32.3-4.8l-30.2,7.5V356.5z"/>
	<rect x="212.6" y="350.8" class="st0_banker-72" width="74.2" height="15.3"/>
	<path class="st2_banker-72" d="M286.8,366.8h-74.2c-0.4,0-0.7-0.3-0.7-0.7l0,0v-15.3c0-0.4,0.3-0.7,0.7-0.7c0,0,0,0,0,0h74.2&#10;&#9;&#9;c0.4,0,0.7,0.3,0.7,0.7v0v15.3C287.5,366.5,287.2,366.8,286.8,366.8L286.8,366.8z M213.2,365.4h72.9v-13.9h-72.9L213.2,365.4z"/>
	<rect x="239.5" y="350.8" class="st0_banker-72" width="20.4" height="15.3"/>
	<path class="st2_banker-72" d="M259.9,366.8h-20.4c-0.4,0-0.7-0.3-0.7-0.7l0,0v-15.3c0-0.4,0.3-0.7,0.7-0.7c0,0,0,0,0,0h20.4&#10;&#9;&#9;c0.4,0,0.7,0.3,0.7,0.7v0v15.3C260.6,366.5,260.3,366.8,259.9,366.8L259.9,366.8z M240.2,365.4h19v-13.9h-19L240.2,365.4z"/>
	<polygon class="st1_banker-72" points="245.2,225.1 250.6,232.1 235.1,318.4 250.6,341 264.9,316.9 254.2,231.8 261.6,225.1 252.9,220.4 &#9;"/>
	<path class="st0_banker-72" d="M57.2,205.7l20.4,11.3c0,0-5,15-7.4,18.9l-23.7-10.6L57.2,205.7z"/>
	<path class="st2_banker-72" d="M70.2,236.7c-0.1,0-0.2,0-0.3-0.1L46.3,226c-0.2-0.1-0.3-0.2-0.4-0.4c-0.1-0.2,0-0.4,0-0.6l10.7-19.6&#10;&#9;&#9;c0.1-0.2,0.2-0.3,0.4-0.3c0.2-0.1,0.4,0,0.5,0.1l20.4,11.4c0.3,0.2,0.4,0.5,0.3,0.8c-0.2,0.6-5,15.1-7.4,19.1&#10;&#9;&#9;C70.7,236.6,70.5,236.7,70.2,236.7z M47.5,225.1L70,235.1c2.2-4,5.9-15.1,6.8-17.7l-19.3-10.7L47.5,225.1z"/>
	<path class="st3_banker-72 targetColor" d="M76.3,214.7c0,0,30.5,12.3,54.3,13.8s54.7-6.4,54.7-6.4l8.4,40c0,0-30.8,13.5-61.4,7.6s-63.7-32.3-63.7-32.3&#10;&#9;&#9;L76.3,214.7z" style="fill: rgb(104, 225, 253);"/>
	<path class="st0_banker-72" d="M223.1,126.4c0,0,0-17.4-4.7-31.8c11.2-6,23.8-8.7,36.5-8c17.2,1,33.4,11.1,33.4,11.1s-8.6,14.3-7,30.8&#10;&#9;&#9;C281.2,128.6,246.1,119.6,223.1,126.4z"/>
	<path class="st2_banker-72" d="M281.2,129.3H281c-0.4-0.1-35.2-8.9-57.8-2.2c-0.2,0.1-0.4,0-0.6-0.1c-0.2-0.1-0.3-0.3-0.3-0.6&#10;&#9;&#9;c0-0.2-0.1-17.5-4.7-31.6c-0.1-0.3,0-0.7,0.3-0.9c11.3-6,24.1-8.8,36.9-8.1c17.1,1,33.6,11.1,33.7,11.2c0.3,0.2,0.5,0.6,0.3,0.9&#10;&#9;&#9;c0,0,0,0,0,0.1c-0.1,0.1-8.4,14.3-6.9,30.4C282,128.9,281.7,129.3,281.2,129.3C281.3,129.3,281.2,129.3,281.2,129.3L281.2,129.3z&#10;&#9;&#9; M243.8,123.2c16.5,0,32.7,3.6,36.7,4.5c-1-14.2,5.3-26.8,6.9-29.7c-3-1.8-17.5-9.8-32.5-10.7c-12.3-0.6-24.6,2-35.6,7.6&#10;&#9;&#9;c3.9,12.3,4.5,26.8,4.6,30.5C230.3,123.8,237,123.1,243.8,123.2L243.8,123.2z"/>
	<path class="st2_banker-72" d="M233.6,88.7c-0.1,0,4,21.7,3.8,37.1"/>
	<path class="st2_banker-72" d="M237.4,126.5L237.4,126.5c-0.4,0-0.7-0.3-0.7-0.7c0,0,0,0,0,0c0.1-8.5-1.1-20.5-3.6-35.4&#10;&#9;&#9;c-0.3-2-0.4-2.1,0.3-2.3c0.4-0.1,0.7,0.1,0.8,0.5c0,0,0,0,0,0c0,0.1,0,0.1,0,0.2c0,0.2,0.1,0.7,0.2,1.4c2.5,15,3.7,27.1,3.6,35.7&#10;&#9;&#9;C238.1,126.2,237.8,126.5,237.4,126.5z"/>
	<ellipse class="st2_banker-72" cx="252.6" cy="139.4" rx="50.1" ry="19.4"/>
	<path class="st2_banker-72" d="M252.6,159.4c-28.5,0-50.8-8.8-50.8-20s22.3-20.1,50.8-20.1s50.8,8.8,50.8,20.1S281.1,159.4,252.6,159.4z&#10;&#9;&#9; M252.6,120.7c-27.2,0-49.4,8.4-49.4,18.6s22.2,18.6,49.4,18.6s49.4-8.4,49.4-18.6S279.9,120.7,252.6,120.7z"/>
	<polygon class="st2_banker-72" points="229.2,205.6 273,205.8 272.3,220.6 241.3,220.6 226.3,214.2 &#9;"/>
	<path class="st2_banker-72" d="M272.3,221.3h-30.9c-0.1,0-0.2,0-0.3,0l-15-6.4c-0.3-0.2-0.5-0.5-0.4-0.9l2.9-8.6c0.1-0.3,0.4-0.5,0.7-0.5l0,0&#10;&#9;&#9;l43.8,0.1c0.2,0,0.4,0.1,0.5,0.2c0.1,0.1,0.2,0.3,0.2,0.5l-0.8,14.8C273,221,272.7,221.3,272.3,221.3&#10;&#9;&#9;C272.3,221.3,272.3,221.3,272.3,221.3z M241.5,219.9h30.1l0.7-13.4l-42.6-0.1l-2.6,7.5L241.5,219.9z"/>
	<path class="st0_banker-72" d="M223.9,130.8c-4.8,10.6-2.5,21.6-1.3,32.7c0,0.8,0.3,1.6,0.8,2.3c1.4,1.5,4.3,0.5,6.1,0.5&#10;&#9;&#9;c2.7,0,5.5,0.4,8.2,0.5c4.7,0.2,9.4,0.4,14.1,0.3c6.8-0.1,13.6,0.4,20.3-0.5c2.9-0.4,4.9-0.4,6.7-2.4c1.3-1.4,2.3-3,3-4.8&#10;&#9;&#9;c0.4-1,0.8-2,1-2.9c2.5-8.1,2.3-16.8-0.5-24.8C252.6,125.7,225.5,130.3,223.9,130.8z"/>
	<path class="st2_banker-72" d="M261.9,167.7c-1.4,0-2.8,0-4.1,0c-2,0-4-0.1-5.9,0c-4.1,0.1-8.6,0-14.1-0.3c-1.1,0-2.1-0.1-3.2-0.2&#10;&#9;&#9;c-1.6-0.1-3.4-0.3-5-0.3c-0.4,0-1,0.1-1.6,0.1c-1.7,0.2-3.8,0.5-5.1-0.9c-0.6-0.8-1-1.7-1-2.7c-0.2-1.5-0.4-3-0.5-4.5&#10;&#9;&#9;c-1.2-9.4-2.4-19.2,1.9-28.5c0.1-0.2,0.2-0.3,0.4-0.4c2.1-0.7,29.1-5.1,58.8,0.6c0.2,0,0.4,0.2,0.5,0.4c2.8,8.1,3,17,0.5,25.2&#10;&#9;&#9;c-0.3,1-0.7,2-1.1,3c-0.7,1.8-1.8,3.5-3.1,5c-1.8,2-3.7,2.2-6.1,2.5l-1,0.1C268.8,167.6,265.4,167.8,261.9,167.7z M253.7,166.3h4.2&#10;&#9;&#9;c4.7,0.2,9.5,0,14.2-0.5l1-0.1c2.3-0.3,3.8-0.5,5.3-2.1c1.2-1.4,2.2-2.9,2.8-4.6c0.4-0.9,0.7-1.9,1-2.9c2.4-7.8,2.3-16.2-0.3-24&#10;&#9;&#9;c-27.8-5.3-53.9-1.5-57.5-0.7c-3.9,8.8-2.7,18.3-1.6,27.4c0.2,1.5,0.4,3,0.5,4.5c0,0.7,0.2,1.3,0.6,1.9c0.8,0.9,2.4,0.6,3.9,0.4&#10;&#9;&#9;c0.6-0.1,1.2-0.1,1.7-0.2c1.7,0,3.4,0.1,5.1,0.3c1,0.1,2.1,0.2,3.1,0.2c5.5,0.2,10,0.3,14,0.3L253.7,166.3z"/>
	<path class="st0_banker-72" d="M232.3,158.7c-1.3-9.5-18.9-12.3-18.4-1.2c0,3.9,1.6,7.7,4.3,10.5c2.9,2.8,7.7,4.3,11.7,2.8"/>
	<path class="st2_banker-72" d="M226.5,172.1c-3.3,0-6.5-1.3-8.9-3.6c-2.9-3-4.5-6.9-4.5-11c-0.2-4.5,2.5-7.5,7-7.9c5.4-0.5,12,3.1,12.9,8.9&#10;&#9;&#9;c0.1,0.4-0.2,0.7-0.6,0.8s-0.7-0.2-0.8-0.6c-0.7-5.1-6.6-8.2-11.4-7.8c-1.8,0.2-5.9,1.1-5.7,6.4c0,3.8,1.5,7.4,4.1,10.1&#10;&#9;&#9;c2.9,2.8,7.1,3.9,11,2.7c0.4-0.1,0.8,0.1,0.9,0.4c0,0,0,0,0,0c0.1,0.4-0.1,0.8-0.4,0.9C229,171.9,227.7,172.1,226.5,172.1z"/>
	<path class="st0_banker-72" d="M270.5,158.7c1.3-9.5,18.9-12.3,18.4-1.2c0,3.9-1.6,7.7-4.3,10.5c-2.9,2.8-7.7,4.3-11.7,2.8"/>
	<path class="st2_banker-72" d="M276.2,172.1c-1.2,0-2.4-0.2-3.6-0.6c-0.4-0.1-0.5-0.5-0.4-0.9c0.1-0.4,0.5-0.6,0.9-0.4c0,0,0,0,0,0&#10;&#9;&#9;c3.9,1.2,8.1,0.2,11-2.7c2.6-2.7,4.1-6.3,4.1-10.1c0.2-5.3-3.9-6.3-5.7-6.4c-4.8-0.4-10.6,2.6-11.4,7.8c-0.1,0.4-0.4,0.7-0.8,0.6&#10;&#9;&#9;c-0.4-0.1-0.7-0.4-0.6-0.8c0.8-5.9,7.5-9.4,12.9-8.9c4.5,0.4,7.1,3.4,7,7.9c0,4.1-1.6,8-4.5,11&#10;&#9;&#9;C282.7,170.8,279.6,172.1,276.2,172.1z"/>
	<path class="st0_banker-72" d="M230.9,216.3c0,0,8.1,3.7,22,4.1c13.9,0.4,16.2-2.9,16.2-2.9l-0.3-6.6l-0.8-15.4l-0.7-14.3l-31.8-1l-1.5,11.7&#10;&#9;&#9;l-0.5,3.8L230.9,216.3z"/>
	<path class="st2_banker-72" d="M255.3,221.1c-0.8,0-1.6,0-2.4,0c-13.9-0.4-21.9-4-22.3-4.1c-0.3-0.1-0.4-0.4-0.4-0.7l4.6-36.1&#10;&#9;&#9;c0-0.4,0.4-0.6,0.7-0.6l31.8,1c0.4,0,0.6,0.3,0.7,0.7l1.8,36.3c0,0.2,0,0.3-0.1,0.4C269.5,218.2,267.1,221.1,255.3,221.1z&#10;&#9;&#9; M231.7,215.9c1.9,0.8,9.5,3.5,21.3,3.8c11.4,0.4,14.8-1.9,15.5-2.5l-1.8-35.3l-30.5-0.9L231.7,215.9z"/>
	<path class="st2_banker-72" d="M233.6,195.7c2.3,3.5,6.1,6.3,10.1,8.4c6.7,3.6,16.8,7.6,25.1,6.8l-0.8-15.4c-6.1,0.5-12.2,0.3-18.3-0.4&#10;&#9;&#9;c-5.3-0.6-10.8-1.2-15.7-3.2L233.6,195.7z"/>
	<path class="st2_banker-72" d="M266.5,211.7c-8.6,0-18-4.3-23.1-7c-4.8-2.6-8.3-5.5-10.4-8.7c-0.1-0.1-0.1-0.3-0.1-0.5l0.5-3.8&#10;&#9;&#9;c0-0.2,0.2-0.4,0.3-0.5c0.2-0.1,0.4-0.1,0.6-0.1c4.9,2,10.5,2.6,15.5,3.1c6,0.8,12.1,0.9,18.2,0.5c0.2,0,0.4,0,0.5,0.2&#10;&#9;&#9;c0.1,0.1,0.2,0.3,0.2,0.5l0.8,15.3c0,0.4-0.3,0.7-0.6,0.7C268.1,211.7,267.3,211.7,266.5,211.7z M234.3,195.5&#10;&#9;&#9;c1.9,2.9,5.2,5.6,9.7,8c5.3,2.8,15.4,7.4,24.1,6.8l-0.7-13.9c-5.9,0.4-11.9,0.2-17.7-0.5c-4.8-0.5-10.2-1.1-15-2.9L234.3,195.5z"/>
	<path class="st0_banker-72" d="M279.2,137.1l-1.3,38.3c-0.1,1.6-0.3,3.3-0.7,4.9c-2.8,11.2-13,18.9-24.5,18.5l-2.9-0.1&#10;&#9;&#9;c-13.3-0.4-23.9-11.5-23.5-24.8c0-0.1,0-0.1,0-0.2l1.3-38.2c0,0,6,7.9,23.3,7.7S279.2,137.1,279.2,137.1z"/>
	<path class="st2_banker-72" d="M253.5,199.4h-0.9l-2.8-0.1c-11.1-0.4-20.6-8-23.4-18.7c-0.6-2.3-0.8-4.6-0.8-7l1.4-38.3&#10;&#9;&#9;c0-0.4,0.3-0.7,0.7-0.7c0.2,0,0.4,0.1,0.5,0.3c0.1,0.1,6,7.4,22.2,7.4h0.5c16.8-0.1,27.8-5.8,27.9-5.9c0.2-0.1,0.5-0.1,0.7,0&#10;&#9;&#9;c0.2,0.1,0.3,0.4,0.3,0.6l-1.3,38.3c-0.1,1.7-0.3,3.4-0.7,5C275.1,191.6,265,199.4,253.5,199.4z M228.3,137l-1.3,36.6&#10;&#9;&#9;c-0.1,2.2,0.2,4.5,0.7,6.6c2.7,10.1,11.7,17.3,22.1,17.6l2.8,0.1c13,0.5,23.9-9.5,24.5-22.5c0-0.1,0-0.1,0-0.2l1.3-37.1&#10;&#9;&#9;c-8.7,3.6-18.1,5.5-27.5,5.5C237.6,143.9,230.8,139.3,228.3,137z"/>
	<path class="st0_banker-72" d="M252.2,159.1c0,0,6.6,15.5,3.1,15.8c-2.1,0.2-4.1-0.1-6.1-0.7"/>
	<path class="st2_banker-72" d="M254,175.6c-1.7,0-3.4-0.3-5.1-0.8c-0.4-0.1-0.6-0.5-0.5-0.9s0.5-0.6,0.9-0.5c0,0,0.1,0,0.1,0.1&#10;&#9;&#9;c1.9,0.6,3.8,0.8,5.8,0.7c0.1,0,0.2-0.1,0.2-0.1c1-1.6-1.7-9.5-3.9-14.7c-0.1-0.4,0.1-0.8,0.5-0.9c0.3-0.1,0.7,0,0.8,0.3&#10;&#9;&#9;c0.9,2.2,5.5,13.1,3.8,15.9c-0.3,0.5-0.8,0.8-1.3,0.8C254.9,175.6,254.4,175.6,254,175.6z"/>
	<ellipse class="st2_banker-72" cx="242" cy="155.4" rx="1.7" ry="3.3"/>
	<ellipse class="st2_banker-72" cx="263.2" cy="155.4" rx="1.7" ry="3.3"/>
	<path class="st0_banker-72" d="M273,205.8c-0.6,0-20.3,14.7-20.3,14.7l12.2,12.6l12.2-19.7L273,205.8z"/>
	<path class="st2_banker-72" d="M264.9,233.7c-0.2,0-0.4-0.1-0.5-0.2l-12.2-12.6c-0.1-0.1-0.2-0.3-0.2-0.5c0-0.2,0.1-0.4,0.3-0.5&#10;&#9;&#9;c19.9-14.8,20.4-14.8,20.7-14.8c0.3,0,0.5,0.1,0.6,0.4l4,7.6c0.1,0.2,0.1,0.5,0,0.7l-12.2,19.6&#10;&#9;&#9;C265.4,233.5,265.2,233.7,264.9,233.7L264.9,233.7z M253.8,220.5l11,11.4l11.5-18.6l-3.5-6.6C270.3,208.3,260.6,215.4,253.8,220.5z&#10;&#9;&#9;"/>
	<path class="st0_banker-72" d="M229.2,205.6c0.6,0,23.7,14.8,23.7,14.8L238.9,233l-14.1-19.7L229.2,205.6z"/>
	<path class="st2_banker-72" d="M238.9,233.7L238.9,233.7c-0.3,0-0.5-0.1-0.6-0.3l-14.1-19.6c-0.1-0.2-0.1-0.5,0-0.8l4.4-7.7&#10;&#9;&#9;c0.1-0.2,0.4-0.3,0.6-0.4c0.2,0,0.9,0,24.1,14.9c0.2,0.1,0.3,0.3,0.3,0.5c0,0.2-0.1,0.4-0.2,0.6l-14.1,12.6&#10;&#9;&#9;C239.2,233.6,239.1,233.7,238.9,233.7z M225.7,213.3l13.3,18.6l12.8-11.4c-8.1-5.2-19.7-12.5-22.3-14L225.7,213.3z"/>
	<path class="st2_banker-72" d="M254.3,192.6h-0.7c-11.9-1-12.7-15.7-12.7-15.8c0-0.3,0.1-0.5,0.4-0.6c0.2-0.1,0.5-0.1,0.7,0&#10;&#9;&#9;c12.4,8.6,21,1.4,21.4,1.1c0.2-0.2,0.5-0.2,0.8-0.1c0.3,0.1,0.4,0.4,0.4,0.7C264.6,178.4,262.8,192.6,254.3,192.6z M242.5,178.1&#10;&#9;&#9;c0.5,3.5,2.5,12.4,11.2,13.1c6.1,0.5,8.5-8.3,9.2-11.9C260,181,252.3,184.2,242.5,178.1z"/>
	<path class="st2_banker-72" d="M253.9,186.8c-3.6,0-7.1-0.6-10.5-1.8c-0.4-0.1-0.6-0.5-0.5-0.9c0.1-0.4,0.5-0.6,0.9-0.5c0,0,0.1,0,0.1,0&#10;&#9;&#9;c0.1,0,10.5,3.8,18.1,0c0.3-0.2,0.8,0,0.9,0.3c0.2,0.3,0,0.8-0.3,0.9C259.9,186.2,256.9,186.8,253.9,186.8z"/>
	<path class="st0_banker-72" d="M60.1,201.5c0,0-24.7,14.6-16.4,22.9"/>
	<path class="st2_banker-72" d="M43.8,225.1c-0.2,0-0.4-0.1-0.5-0.2c-1.4-1.3-2.2-3.3-1.9-5.2c1-8.4,17.7-18.3,18.4-18.7&#10;&#9;&#9;c0.3-0.2,0.8-0.1,1,0.2c0,0,0,0,0,0c0.2,0.3,0.1,0.8-0.2,1c0,0,0,0,0,0c-0.2,0.1-16.8,10-17.7,17.7c-0.2,1.5,0.3,3,1.5,4.1&#10;&#9;&#9;c0.3,0.3,0.3,0.7,0,1c0,0,0,0,0,0C44.2,225,44,225.1,43.8,225.1z"/>
	<path class="st0_banker-72" d="M27.3,240.2c0,0,8.3-38.8,7.3-50.4S25.9,167,25.9,167s16.5-5.8,29.5-1.4c0,0-7.8,55.8-3.2,67&#10;&#9;&#9;s5.1,12.5,5.1,12.5S39.5,246.3,27.3,240.2z"/>
	<path class="st2_banker-72" d="M53.3,245.9c-6,0-17.5-0.6-26.3-5c-0.3-0.1-0.4-0.5-0.4-0.8c0.1-0.4,8.2-38.8,7.3-50.3s-8.5-22.3-8.6-22.4&#10;&#9;&#9;c-0.1-0.2-0.2-0.4-0.1-0.6c0.1-0.2,0.2-0.4,0.4-0.4c0.7-0.2,16.9-5.8,30-1.4c0.3,0.1,0.5,0.4,0.5,0.8c-0.1,0.6-7.7,55.7-3.3,66.7&#10;&#9;&#9;s5,12.4,5.1,12.5c0.1,0.2,0.1,0.4,0,0.6c-0.1,0.2-0.3,0.3-0.5,0.3C57.1,245.8,55.6,245.9,53.3,245.9z M28.1,239.8&#10;&#9;&#9;c10.2,4.9,24.3,4.8,28.1,4.6c-0.5-1.3-1.8-4.4-4.7-11.6c-4.4-10.8,2.2-60.5,3.1-66.8c-10.8-3.4-24.1,0.2-27.6,1.3&#10;&#9;&#9;c1.8,2.8,7.5,12.3,8.3,22.4C36.2,200.7,29.1,234.9,28.1,239.8z"/>
	<path class="st0_banker-72" d="M39.5,168.7c0,0-14,2.4-20.2,5.2c0,0,13.1,13.4,12,23.7s-9.2,38.2-9.2,38.2s8.7-0.9,22.7,2.9L39.5,168.7z"/>
	<path class="st2_banker-72" d="M44.9,239.3c-0.1,0-0.1,0-0.2,0c-13.7-3.7-22.4-2.9-22.4-2.9c-0.2,0-0.5-0.1-0.6-0.2c-0.1-0.2-0.2-0.4-0.1-0.6&#10;&#9;&#9;c0.1-0.3,8.1-28,9.1-38.1c1-9.8-11.7-23-11.9-23.1c-0.2-0.2-0.2-0.4-0.2-0.6c0-0.2,0.2-0.4,0.4-0.5c6.3-2.8,19.8-5.2,20.4-5.3&#10;&#9;&#9;c0.2,0,0.4,0,0.5,0.1c0.2,0.1,0.3,0.3,0.3,0.5l5.3,69.9C45.6,239,45.3,239.3,44.9,239.3C44.9,239.4,44.9,239.4,44.9,239.3&#10;&#9;&#9;L44.9,239.3z M24.9,235c6.5,0.1,12.9,1,19.2,2.8l-5.2-68.2c-2.8,0.5-12.8,2.5-18.4,4.6c2.8,3,12.5,14.3,11.5,23.5&#10;&#9;&#9;s-7.5,32.2-8.9,37.3C23.6,235,24.2,235,24.9,235z"/>
	<path class="st0_banker-72" d="M36.2,173.9c0,0,3.7,57,2.3,72.1c0,0,19.1,6,28.7,0c0,0-17.9-40.6-13.9-52.6s5.2-16.4,5.2-16.4L36.2,173.9z"/>
	<path class="st2_banker-72" d="M55.4,249.4c-5.8-0.1-11.6-1-17.2-2.7c-0.3-0.1-0.5-0.4-0.5-0.7c1.4-14.9-2.2-71.4-2.3-72&#10;&#9;&#9;c0-0.2,0.1-0.4,0.2-0.6c0.2-0.1,0.4-0.2,0.6-0.2l22.3,3.1c0.2,0,0.4,0.1,0.5,0.3c0.1,0.2,0.1,0.4,0.1,0.6c0,0-1.3,4.5-5.2,16.4&#10;&#9;&#9;c-3.9,11.6,13.7,51.7,13.9,52.1c0.1,0.3,0,0.7-0.3,0.9C64.2,248.7,59.8,249.4,55.4,249.4z M39.2,245.5c3.1,0.9,18.6,4.9,27.1,0.2&#10;&#9;&#9;c-2.2-5.2-17.5-41-13.7-52.5c3-9.1,4.5-13.8,5-15.6l-20.6-2.9C37.4,181.8,40.3,230.8,39.2,245.5z"/>
	<path class="st0_banker-72" d="M45.1,165.6c0,0-7.7,58.2-1.9,71c8.4,2,17.3,0.6,24.6-4c0,0-18-8-13.4-26.9s15.2-26.2,15.2-26.2L45.1,165.6z"/>
	<path class="st2_banker-72" d="M50.8,238.2c-2.6,0-5.2-0.3-7.8-0.9c-0.2-0.1-0.4-0.2-0.4-0.4c-5.8-12.8,1.5-69,1.8-71.4&#10;&#9;&#9;c0.1-0.4,0.4-0.6,0.8-0.6c0.1,0,0.1,0,0.2,0.1L70,178.9c0.3,0.2,0.5,0.6,0.3,1c-0.1,0.1-0.1,0.2-0.2,0.2c-0.1,0.1-10.5,7.5-15,25.8&#10;&#9;&#9;C50.8,224,68,231.9,68.1,232c0.2,0.1,0.4,0.3,0.4,0.6c0,0.3-0.1,0.5-0.3,0.6C63,236.5,57,238.2,50.8,238.2z M43.8,236&#10;&#9;&#9;c7.7,1.7,15.8,0.5,22.6-3.3c-4-2.2-16.6-10.7-12.6-27.1c3.9-16,12-23.8,14.7-26l-22.8-12.9C44.7,174.5,38.8,223.9,43.8,236&#10;&#9;&#9;L43.8,236z"/>
	<path class="st0_banker-72" d="M33.7,178.1c0,0-1.5,40-5.3,52.3c0,0,12.1-2.2,23.3,0c0,0-5.8-27.4,5.6-49C57.2,181.4,46.4,184.5,33.7,178.1z"/>
	<path class="st2_banker-72" d="M51.7,231.1h-0.1c-10.9-2.2-22.9,0-23,0c-0.4,0.1-0.7-0.2-0.8-0.6c0-0.1,0-0.2,0-0.3&#10;&#9;&#9;c3.7-12.1,5.3-51.8,5.3-52.1c0-0.2,0.1-0.5,0.3-0.6c0.2-0.1,0.5-0.1,0.7,0c12.4,6.2,23,3.3,23,3.3c0.3-0.1,0.6,0,0.7,0.2&#10;&#9;&#9;c0.2,0.2,0.2,0.5,0.1,0.8c-11.1,21.1-5.6,48.3-5.5,48.5c0,0.2,0,0.5-0.2,0.6C52.1,231.1,51.9,231.1,51.7,231.1z M34.3,179.2&#10;&#9;&#9;c-0.3,6.4-1.8,38.2-5,50.3c7.1-1.1,14.3-1.1,21.4,0c-0.9-5.1-4.1-28.1,5.2-47.1C48.6,183.6,41,182.5,34.3,179.2z"/>
	<path class="st0_banker-72" d="M60.1,219.2c-4.8-0.8-9.5-6.6-9.4-9.3c-1.8,1-3.8,1.9-5.8,2.5c-1.4,0.5-3,0.8-4.2-0.1c-1.1-0.9-1.5-2.4-1-3.7&#10;&#9;&#9;c0.5-1.3,1.3-2.4,2.4-3.3c2.7-2.7,6.1-4.8,9.8-6c8.4-2.5,8.9-1.4,14.4,11.3"/>
	<path class="st2_banker-72" d="M60.1,219.9H60c-4.6-0.8-9-5.7-9.9-8.9c-1.6,0.8-3.3,1.5-5,2.1c-1.4,0.4-3.4,0.9-4.9-0.1&#10;&#9;&#9;c-1.3-1.1-1.8-2.9-1.2-4.5c0.5-1.4,1.4-2.7,2.5-3.6c2.8-2.8,6.3-5,10.1-6.2c9-2.7,9.7-1.1,15.2,11.4l0.1,0.2c0.2,0.4,0,0.8-0.4,0.9&#10;&#9;&#9;s-0.8,0-0.9-0.4l0,0l-0.1-0.2c-5.5-12.5-5.7-13-13.5-10.7c-3.6,1.2-6.8,3.2-9.5,5.9c-1,0.8-1.7,1.8-2.2,3c-0.4,1.1-0.1,2.2,0.7,3&#10;&#9;&#9;c0.8,0.5,1.9,0.5,3.6,0c2-0.6,3.8-1.5,5.7-2.5c0.2-0.1,0.5-0.1,0.7,0c0.2,0.1,0.3,0.4,0.3,0.6c-0.1,2.5,4.5,7.9,8.9,8.6&#10;&#9;&#9;c0.4,0.1,0.6,0.4,0.6,0.8C60.7,219.6,60.5,219.9,60.1,219.9L60.1,219.9z"/>
	<path class="st0_banker-72" d="M41.2,201.2c0.1,0.3,0.2,0.7,0.2,1c0.2,7.5-9.9,1-12.6-0.1c-5-2.1-3.2-8.4,2-8.6c2.5-0.1,4.7,1.7,6.6,3.4&#10;&#9;&#9;l1.4,1.2C39.9,198.8,40.7,199.9,41.2,201.2z"/>
	<path class="st2_banker-72" d="M38.5,206.4c-2.6,0-5.9-1.7-8.3-2.9c-0.7-0.4-1.2-0.6-1.6-0.8c-2.3-0.8-3.7-3.1-3.3-5.5&#10;&#9;&#9;c0.6-2.6,2.9-4.5,5.6-4.5c2.7-0.1,5,1.7,7.1,3.6l1.4,1.2c1.2,0.9,2.1,2.1,2.7,3.4l0,0c0.1,0.4,0.2,0.8,0.2,1.2&#10;&#9;&#9;c0,1.8-0.5,3.1-1.5,3.8C40,206.3,39.3,206.5,38.5,206.4z M31.1,194.1h-0.2c-2,0-3.8,1.4-4.2,3.4c-0.3,1.7,0.8,3.4,2.5,3.9&#10;&#9;&#9;c0.4,0.2,1,0.5,1.8,0.9c2.5,1.3,7.1,3.6,9,2.5c0.6-0.4,0.9-1.2,0.9-2.5c0-0.3-0.1-0.6-0.2-0.8c-0.5-1.1-1.3-2.1-2.3-2.8l-1.3-1.2&#10;&#9;&#9;C35.2,195.7,33.2,194.1,31.1,194.1z"/>
	<path class="st0_banker-72" d="M27.5,203c-0.7-0.1-1.4-0.1-2.1,0c-1.5,0.4-2.4,2-2.9,3.5c-0.4,1.3-0.6,2.9,0.2,4c0.7,0.8,1.7,1.3,2.8,1.5&#10;&#9;&#9;c3.2,0.8,6.5,1.1,9.8,0.7c3.5-0.3,7.4-4.1,3.8-7.2C36.5,203.4,30.6,203.4,27.5,203z"/>
	<path class="st2_banker-72" d="M32.6,213.6c-2.4,0-4.8-0.3-7.2-0.9c-1.2-0.2-2.3-0.8-3.2-1.7c-0.9-1.1-1-2.7-0.4-4.7c0.7-2.2,1.8-3.6,3.4-3.9&#10;&#9;&#9;c0.8-0.1,1.6-0.1,2.3,0l0,0c0.6,0.1,1.3,0.1,2.1,0.2c3.4,0.3,7.6,0.6,9.9,2.6c1.4,1,1.9,2.7,1.5,4.3c-0.7,2-3.1,3.8-5.7,4.1&#10;&#9;&#9;C34.4,213.6,33.5,213.6,32.6,213.6z M26.3,203.6c-0.2,0-0.5,0-0.7,0.1c-1.3,0.3-2,1.8-2.4,3c-0.5,1.5-0.4,2.7,0.1,3.4&#10;&#9;&#9;c0.6,0.7,1.5,1.1,2.4,1.2c3.1,0.8,6.3,1,9.5,0.7c2-0.2,4-1.6,4.5-3.1c0.3-1.1-0.2-2.3-1.1-2.9c-1.9-1.6-6.1-2-9.1-2.2&#10;&#9;&#9;c-0.8-0.1-1.5-0.1-2.1-0.2l0,0C27,203.7,26.6,203.6,26.3,203.6z"/>
	<path class="st0_banker-72" d="M27.7,211.7c-2.7,0-6.2,0.6-5.8,4.2c0.3,2.4,3,4.1,5.2,4.3c3.2,0.3,6.3,0.1,9.4-0.7c0.6-0.1,1.2-0.4,1.7-0.8&#10;&#9;&#9;c0.4-0.4,0.7-0.9,0.9-1.4c0.4-0.8,0.7-1.6,0.7-2.5C39.9,211.1,30.3,211.7,27.7,211.7z"/>
	<path class="st2_banker-72" d="M30,221.1c-1,0-2-0.1-2.9-0.2c-2.6-0.3-5.5-2.2-5.8-4.9c-0.2-1.2,0.1-2.3,0.8-3.2c1-1.2,2.9-1.8,5.6-1.8l0,0h1&#10;&#9;&#9;c3.1-0.1,8.8-0.2,11,1.9c0.6,0.5,0.9,1.2,0.9,2c-0.1,1-0.3,1.9-0.8,2.8c-0.2,0.6-0.6,1.1-1,1.6c-0.6,0.5-1.3,0.8-2,0.9&#10;&#9;&#9;C34.6,220.8,32.3,221.1,30,221.1z M27.7,212.4c-2.3,0-3.8,0.4-4.5,1.3c-0.5,0.6-0.7,1.4-0.5,2.1c0.3,2,2.6,3.5,4.6,3.7&#10;&#9;&#9;c3.1,0.3,6.2,0.1,9.2-0.7c0.5-0.1,1-0.3,1.4-0.6c0.3-0.3,0.5-0.7,0.7-1.1c0.4-0.7,0.6-1.4,0.7-2.2c0-0.4-0.2-0.7-0.5-1&#10;&#9;&#9;c-1.7-1.7-7.5-1.6-10-1.5L27.7,212.4L27.7,212.4z M27.7,211.7L27.7,211.7z"/>
	<path class="st0_banker-72" d="M26.6,220.4c-1.8,0-3.1-0.3-4,1.6c-0.8,1.4-0.6,3.3,0.6,4.4c0.8,0.6,1.8,1,2.9,1c2.6,0.3,5.3,0.1,7.8-0.5&#10;&#9;&#9;c0.5-0.1,1-0.3,1.4-0.6c0.3-0.3,0.6-0.7,0.7-1.1c0.3-0.6,0.5-1.3,0.6-2C36.6,220,28.7,220.4,26.6,220.4z"/>
	<path class="st2_banker-72" d="M28.6,228.3c-0.9,0-1.7-0.1-2.6-0.2c-1.2,0-2.3-0.5-3.2-1.2c-1.4-1.4-1.7-3.5-0.8-5.3c1-2.1,2.5-2,4-2h1.4&#10;&#9;&#9;c2.6,0,7.4-0.1,9.2,1.7c0.5,0.5,0.8,1.1,0.8,1.8c-0.1,0.8-0.3,1.6-0.7,2.3c-0.2,0.5-0.5,1-0.9,1.4c-0.5,0.4-1.1,0.7-1.7,0.8&#10;&#9;&#9;C32.3,228.1,30.4,228.3,28.6,228.3z M25.3,221.1c-0.9-0.2-1.8,0.3-2.1,1.2c-0.7,1.2-0.5,2.6,0.4,3.6c0.7,0.5,1.6,0.8,2.5,0.9&#10;&#9;&#9;c2.5,0.3,5.1,0.1,7.5-0.5c0.4-0.1,0.8-0.2,1.1-0.5c0.2-0.3,0.4-0.6,0.6-0.9c0.3-0.5,0.5-1.1,0.5-1.8c0-0.3-0.1-0.6-0.3-0.8&#10;&#9;&#9;c-1.4-1.4-6.1-1.3-8.1-1.3L25.3,221.1L25.3,221.1z"/>
	<path class="st0_banker-72" d="M442.8,210.3c0,0-9.2,3.9-16.2,2.3c0,0-3.1,17.6,4.4,25.6l26.8,3.1L442.8,210.3z"/>
	<path class="st2_banker-72" d="M457.8,242L457.8,242l-26.8-3.1c-0.2,0-0.3-0.1-0.4-0.2c-7.7-8.2-4.7-25.5-4.6-26.2c0-0.2,0.1-0.4,0.3-0.5&#10;&#9;&#9;c0.2-0.1,0.4-0.1,0.5-0.1c6.6,1.5,15.7-2.2,15.8-2.3c0.3-0.1,0.7,0,0.9,0.3l15,31c0.1,0.2,0.1,0.5-0.1,0.7&#10;&#9;&#9;C458.3,241.9,458.1,242,457.8,242z M431.4,237.6l25.2,2.9l-14.2-29.3c-2.1,0.8-9.3,3.3-15.2,2.2&#10;&#9;&#9;C426.7,216.7,425.2,230.7,431.4,237.6L431.4,237.6z"/>
	<path class="st0_banker-72" d="M450.9,179.8c0,0-13.5,6.4-20.6,11c0,0,13.1,19.8,14.5,31.9s-6,28.8-6,28.8s15,6.2,23.6,4.1L450.9,179.8z"/>
	<path class="st2_banker-72" d="M458.2,256.7c-8.5,0-19.2-4.3-19.7-4.6c-0.4-0.2-0.5-0.6-0.4-0.9c0,0,0,0,0,0c0.1-0.2,7.2-16.7,5.9-28.5&#10;&#9;&#9;s-14.2-31.4-14.3-31.6c-0.1-0.2-0.1-0.3-0.1-0.5c0-0.2,0.2-0.3,0.3-0.4c7.1-4.6,20.6-11,20.7-11c0.2-0.1,0.4-0.1,0.6,0&#10;&#9;&#9;c0.2,0.1,0.3,0.3,0.4,0.5l11.4,75.7c0.1,0.4-0.2,0.7-0.5,0.8C461.1,256.5,459.7,256.7,458.2,256.7z M439.7,251.1&#10;&#9;&#9;c2.9,1.1,14.6,5.3,21.9,3.9l-11.2-74.1c-3,1.4-13.1,6.3-19.1,10.1c2.2,3.4,12.9,20.5,14.2,31.6C446.6,233.5,441,247.8,439.7,251.1&#10;&#9;&#9;L439.7,251.1z"/>
	<path class="st0_banker-72" d="M448.6,201c0,0-3.3-17.5-5.8-23.5c0,0,23.3-2.7,30.6,0c0,0-5.1,31-4.2,43s2.3,31.2,6.9,36.6&#10;&#9;&#9;c0,0-13.6,4.8-25.2,0.8C450.9,257.8,450.8,211.8,448.6,201z"/>
	<path class="st2_banker-72" d="M461.4,260.2c-3.6,0-7.3-0.5-10.7-1.7c-0.3-0.1-0.5-0.4-0.5-0.7c0-0.5-0.1-46.1-2.3-56.7l0,0&#10;&#9;&#9;c0-0.2-3.3-17.5-5.7-23.4c-0.2-0.3,0-0.8,0.3-0.9c0.1,0,0.2-0.1,0.3-0.1c1-0.1,23.6-2.7,31,0c0.3,0.1,0.5,0.4,0.5,0.8&#10;&#9;&#9;c0,0.3-5,31.1-4.2,42.8l0,0.7c0.9,11.4,2.3,30.4,6.7,35.5c0.2,0.3,0.2,0.7-0.1,1c-0.1,0.1-0.1,0.1-0.2,0.1&#10;&#9;&#9;C471.5,259.3,466.5,260.1,461.4,260.2z M451.6,257.3c9.4,3.1,20.2,0.3,23.4-0.6c-4.2-6.3-5.5-23.8-6.4-35.5v-0.6&#10;&#9;&#9;c-0.8-11.1,3.4-38.1,4.1-42.5c-6.8-2-24.6-0.3-28.9,0.1c2.4,6.6,5.3,22,5.5,22.8C451.4,211.1,451.6,252.1,451.6,257.3L451.6,257.3z&#10;&#9;&#9;"/>
	<path class="st0_banker-72" d="M467.2,180.8c-3.8,6-6.5,12.5-8,19.5c-2.7,11.9,2.1,48.2,2.1,48.2s11,2.5,17.2,0c0,0-9.9-14.1-9.2-27.9&#10;&#9;&#9;s11.4-31,11.4-31L467.2,180.8z"/>
	<path class="st2_banker-72" d="M471.2,250.2c-3.4,0-6.8-0.4-10.1-1.1c-0.3-0.1-0.5-0.3-0.5-0.6c-0.2-1.5-4.8-36.5-2.1-48.4&#10;&#9;&#9;c1.5-7,4.3-13.7,8.1-19.7c0.2-0.3,0.6-0.4,1-0.2l13.5,8.7c0.3,0.2,0.4,0.6,0.2,1c0,0,0,0,0,0c-0.1,0.2-10.6,17.2-11.3,30.7&#10;&#9;&#9;s9,27.4,9.1,27.5c0.2,0.3,0.1,0.8-0.2,1c0,0-0.1,0.1-0.1,0.1C476.3,249.9,473.8,250.3,471.2,250.2z M461.9,247.8&#10;&#9;&#9;c2,0.4,10.2,1.9,15.5,0.2c-2-3.1-9.4-15.3-8.8-27.6c0.6-12.6,9.3-27.6,11.2-30.8l-12.4-7.9c-3.5,5.8-6.1,12.1-7.5,18.6&#10;&#9;&#9;C457.4,211.3,461.4,243.4,461.9,247.8z"/>
	<path class="st0_banker-72" d="M441.3,193.1c0,0,12.9,33.5,4.6,56.1c0,0,9.8,7.3,19.1,4.8c0,0-1-54.1,0-62.6&#10;&#9;&#9;C465,191.4,449.9,189.3,441.3,193.1z"/>
	<path class="st2_banker-72" d="M460.9,255.2c-7.9,0-15-5.2-15.4-5.5c-0.2-0.2-0.3-0.5-0.2-0.8c8.1-22-4.5-55.2-4.6-55.6&#10;&#9;&#9;c-0.1-0.3,0-0.7,0.4-0.9c8.8-3.9,23.5-1.9,24.1-1.8c0.4,0.1,0.6,0.4,0.6,0.8c-1,8.3,0,62,0,62.5c0,0.3-0.2,0.6-0.5,0.7&#10;&#9;&#9;C463.7,255,462.3,255.2,460.9,255.2z M446.7,248.9c1.9,1.3,9.9,6.3,17.5,4.5c-0.1-5.9-0.9-51.7-0.1-61.4c-2.9-0.3-14.6-1.4-22,1.5&#10;&#9;&#9;C443.9,198.2,454,228.1,446.7,248.9L446.7,248.9z"/>
	<path class="st0_banker-72" d="M454,210.9c-1.4,0.9-3,2-3.1,3.7c-0.1,1.9,1.6,3.4,3.4,4c2.3,0.6,4.8,0.7,7.1,0.2c2.1-0.3,4.2-0.7,6.3-1.3&#10;&#9;&#9;c3.2-0.9,7-2.3,8.1-5.8c0.9-2.6-0.2-5.4-2.6-6.8C467.6,202,458.7,208,454,210.9z"/>
	<path class="st2_banker-72" d="M458,219.8c-1.3,0-2.6-0.2-3.9-0.6c-2-0.7-4.1-2.4-3.9-4.7c0.2-2,1.9-3.3,3.4-4.2l0,0l1-0.6&#10;&#9;&#9;c4.9-3.1,13.2-8.2,18.9-5.3c2.7,1.5,3.9,4.7,2.9,7.6c-1.2,4-5.5,5.5-8.5,6.3c-2.1,0.6-4.2,1-6.4,1.3&#10;&#9;&#9;C460.4,219.7,459.2,219.8,458,219.8z M454.4,211.4c-1.3,0.8-2.7,1.8-2.8,3.2s1.4,2.8,3,3.3c2.2,0.6,4.6,0.7,6.8,0.2&#10;&#9;&#9;c2.1-0.3,4.2-0.7,6.2-1.2c3-0.8,6.6-2.1,7.6-5.4c0.8-2.3-0.2-4.7-2.2-5.9c-5-2.6-12.9,2.3-17.5,5.2L454.4,211.4z"/>
	<path class="st0_banker-72" d="M463.9,216.1c-2.2,0.5-4.8,1.2-5.8,3.3c-0.7,1.9-0.2,4,1.3,5.3c1.5,1.3,3.2,2.1,5.2,2.4&#10;&#9;&#9;c5.4,1.2,18,1.1,15.8-7.7C478.7,212.5,468.7,215.1,463.9,216.1z"/>
	<path class="st2_banker-72" d="M470,228.4c-1.8,0-3.7-0.2-5.5-0.5c-2.1-0.3-4-1.2-5.5-2.6c-1.7-1.5-2.2-4-1.4-6.1c1.1-2.3,3.6-3.1,6.2-3.7&#10;&#9;&#9;l0,0l0.8-0.2c5.1-1.1,14.7-3.2,16.5,4c0.6,2.5,0.2,4.6-1.3,6.1C477.7,227.6,473.6,228.4,470,228.4z M464.1,216.8&#10;&#9;&#9;c-2.1,0.4-4.4,1.1-5.3,2.9c-0.6,1.6-0.1,3.4,1.1,4.5c1.4,1.2,3,2,4.8,2.2c4.2,0.9,11.3,0.9,14-2c1.2-1.3,1.6-3.2,1-4.8&#10;&#9;&#9;c-1.4-5.5-8.4-4.4-14.9-3L464.1,216.8z"/>
	<path class="st0_banker-72" d="M463.6,235.4c-1.1-0.1-2.3,0-3.3,0.3c-1.1,0.3-2,1.2-2.3,2.2c-0.4,1.7,0.9,3.3,2.3,4.2&#10;&#9;&#9;c2.6,1.7,5.8,2.3,8.9,1.9c2.6-0.4,7.4-2.9,5-6.1C472.1,235.2,466.6,235.5,463.6,235.4z"/>
	<path class="st2_banker-72" d="M467.2,244.8c-2.6,0-5.2-0.7-7.4-2.1c-1.6-1.1-3.1-2.9-2.6-5c0.4-1.3,1.4-2.3,2.7-2.7c1.2-0.3,2.4-0.4,3.6-0.3&#10;&#9;&#9;h1.2c3.1,0.1,7.9,0.1,9.9,2.8c0.8,0.9,1,2.2,0.5,3.4c-0.9,2.2-4.1,3.6-6,3.8C468.5,244.8,467.9,244.8,467.2,244.8z M462.7,236.1&#10;&#9;&#9;c-0.8,0-1.5,0.1-2.2,0.3c-0.9,0.2-1.6,0.9-1.9,1.8c-0.3,1.3,0.9,2.7,2,3.4c2.5,1.6,5.5,2.2,8.4,1.8c1.6-0.2,4.3-1.4,4.9-3&#10;&#9;&#9;c0.3-0.7,0.1-1.5-0.4-2c-1.6-2.1-5.9-2.2-8.8-2.2c-0.4,0-0.8,0-1.2,0L462.7,236.1z"/>
	<path class="st0_banker-72" d="M464.5,225.4c-1.3-0.3-2.7-0.3-4-0.1c-1.4,0.2-2.5,1.1-3.1,2.3c-0.8,1.9,0.6,4,2.1,5.3&#10;&#9;&#9;c2.9,2.4,6.5,3.6,10.2,3.6c3.1,0,9.2-2.3,6.9-6.4C474.6,226.5,468,226,464.5,225.4z"/>
	<path class="st2_banker-72" d="M469.7,237.1c-3.9,0-7.6-1.3-10.6-3.7c-1.7-1.5-3.2-3.9-2.3-6.1c0.7-1.5,2-2.5,3.6-2.7&#10;&#9;&#9;c1.4-0.2,2.9-0.2,4.2,0.1l0,0l1.4,0.2c3.7,0.5,9.3,1.4,11.2,4.8c0.8,1.2,0.8,2.7,0.1,3.9C476,236,472,237.1,469.7,237.1&#10;&#9;&#9;L469.7,237.1z M461.9,225.8c-0.4,0-0.8,0-1.2,0.1c-1.1,0.2-2.1,0.9-2.6,1.9c-0.6,1.6,0.6,3.4,1.9,4.6c2.7,2.3,6.2,3.5,9.8,3.4&#10;&#9;&#9;c2,0,5.4-1,6.4-2.9c0.5-0.8,0.4-1.8-0.1-2.6c-1.6-2.8-6.8-3.6-10.2-4.1l-1.4-0.2l0,0C463.6,225.9,462.7,225.8,461.9,225.8&#10;&#9;&#9;L461.9,225.8z"/>
	<path class="st0_banker-72" d="M436.6,215.6c0.1-0.7,0.3-1.3,0.5-2c2.5-7.5,8.4-6.4,14.1-4.2c2.5,1,12.2,4.6,11,8.5&#10;&#9;&#9;c-1.5,4.8-11.8,1.9-15.2,1.8c-0.2,1.9,2.4,7.9-4.3,12.8"/>
	<path class="st2_banker-72" d="M442.8,233.3c-0.2,0-0.4-0.1-0.6-0.3c-0.2-0.3-0.2-0.7,0.1-1c0,0,0,0,0,0c5-3.7,4.5-8,4.1-10.6&#10;&#9;&#9;c-0.1-0.6-0.1-1.1-0.1-1.7c0-0.4,0.3-0.6,0.7-0.6c1,0.1,2.1,0.2,3.1,0.4c4.1,0.6,10.4,1.5,11.4-1.7c0.6-2.1-2.8-4.6-10.1-7.4&#10;&#9;&#9;l-0.5-0.2c-2.7-1.1-6.6-2.4-9.5-1.1c-1.7,0.8-2.9,2.3-3.7,4.8c-0.2,0.6-0.4,1.2-0.4,1.9c-0.1,0.4-0.4,0.6-0.8,0.6&#10;&#9;&#9;c-0.4-0.1-0.6-0.4-0.6-0.8c0.1-0.7,0.3-1.4,0.5-2.1c0.9-2.8,2.4-4.7,4.5-5.6c3.3-1.5,7.4-0.2,10.6,1l0.5,0.2&#10;&#9;&#9;c3.7,1.4,12.2,4.8,10.9,9.1s-8.3,3.3-12.9,2.6c-0.9-0.1-1.6-0.2-2.2-0.3c0,0.2,0,0.4,0.1,0.7c0.4,2.7,1,7.7-4.7,11.9&#10;&#9;&#9;C443.1,233.2,443,233.3,442.8,233.3z"/>
	<path class="st3_banker-72 targetColor" d="M224.9,212.7c0,0,6,102.9,0,169.5c0,0-37.4,0.7-53-2.6c0,0,8.5-153.2,13.4-157.5L224.9,212.7z" style="fill: rgb(104, 225, 253);"/>
	<path class="st3_banker-72 targetColor" d="M425.6,214.7c0,0-30.5,12.3-54.3,13.8s-54.7-6.4-54.7-6.4l-8.4,40c0,0,30.8,13.5,61.4,7.6s63.7-32.3,63.7-32.3&#10;&#9;&#9;L425.6,214.7z" style="fill: rgb(104, 225, 253);"/>
	<path class="st3_banker-72 targetColor" d="M277.1,212.7c0,0-4.2,118.4-5.4,169.6c0,0,29.8,2.2,53.3-2.7c0,0-3.4-153.2-8.3-157.5L277.1,212.7z" style="fill: rgb(104, 225, 253);"/>
	<path class="st2_banker-72" d="M324.9,349.3c-0.4,0-0.7-0.3-0.7-0.7l-5.6-109.9c0-0.4,0.3-0.7,0.7-0.7c0.4,0,0.7,0.3,0.7,0.7l0,0l5.6,109.9&#10;&#9;&#9;C325.6,348.9,325.3,349.3,324.9,349.3L324.9,349.3z"/>
	<path class="st2_banker-72" d="M173.1,349.3L173.1,349.3c-0.5,0-0.8-0.4-0.7-0.7c0,0,0,0,0,0l9-109.9c0-0.4,0.4-0.7,0.8-0.6&#10;&#9;&#9;c0.4,0,0.7,0.4,0.6,0.8l-9,109.9C173.7,349,173.4,349.3,173.1,349.3z"/>
	<path class="st2_banker-72" d="M187.3,356.9c-0.2,0-0.4-0.1-0.6-0.3c-0.2-0.3-0.2-0.8,0.2-1c0,0,0,0,0,0l25-17c0.3-0.2,0.7-0.2,1,0.1&#10;&#9;&#9;c0.2,0.3,0.2,0.7-0.1,1c0,0-0.1,0-0.1,0.1l-25,17C187.5,356.8,187.4,356.9,187.3,356.9z"/>
	<path class="st2_banker-72" d="M310.8,353.7c-0.1,0-0.3,0-0.4-0.1l-25-17c-0.3-0.2-0.4-0.7-0.2-1s0.7-0.4,1-0.2l0,0l25,17&#10;&#9;&#9;c0.3,0.2,0.4,0.7,0.2,1C311.2,353.6,311,353.7,310.8,353.7z"/>
	<path class="st0_banker-72" d="M249.7,385.8c-0.2,0-0.5-0.1-0.6-0.3c-0.6-1-4.1-6-4.1-6.1c-0.1-0.1-0.1-0.3-0.1-0.4v-21.8&#10;&#9;&#9;c0-0.4,0.3-0.7,0.7-0.7c0.4,0,0.7,0.3,0.7,0.7v21.6c0.6,0.9,3.5,5.1,4,6c0.2,0.3,0.1,0.8-0.2,1&#10;&#9;&#9;C249.9,385.8,249.8,385.9,249.7,385.8L249.7,385.8z"/>
	<path class="st0_banker-72" d="M250.8,410.3c-0.4,0-0.7-0.3-0.7-0.7l0,0v-52.4c0-0.4,0.3-0.7,0.7-0.7c0.4,0,0.7,0.3,0.7,0.7v52.4&#10;&#9;&#9;C251.5,409.9,251.2,410.3,250.8,410.3C250.8,410.3,250.8,410.3,250.8,410.3z"/>
</g>
</svg>